<svg width="224" height="82" viewBox="0 0 224 82" fill="none" xmlns="http://www.w3.org/2000/svg">
<path opacity="0.2" d="M37.4162 0H37.4161C16.7518 0 0 16.7518 0 37.4161V37.4162C0 58.0805 16.7518 74.8323 37.4161 74.8323H37.4162C58.0805 74.8323 74.8323 58.0805 74.8323 37.4162V37.4161C74.8323 16.7518 58.0805 0 37.4162 0Z" fill="#FA7275"/>
<path d="M82.6265 56.1238C82.6265 42.3476 71.4587 31.1797 57.6824 31.1797C43.9062 31.1797 32.7383 42.3476 32.7383 56.1238C32.7383 69.9 43.9062 81.0679 57.6824 81.0679C71.4587 81.0679 82.6265 69.9 82.6265 56.1238Z" fill="#FA7275"/>
<path d="M120.207 37.3438C120.128 36.5994 119.793 36.0199 119.202 35.6051C118.616 35.1903 117.855 34.983 116.918 34.983C116.259 34.983 115.693 35.0824 115.222 35.2812C114.75 35.4801 114.389 35.75 114.139 36.0909C113.889 36.4318 113.761 36.821 113.756 37.2585C113.756 37.6222 113.838 37.9375 114.003 38.2045C114.173 38.4716 114.403 38.6989 114.693 38.8864C114.983 39.0682 115.304 39.2216 115.656 39.3466C116.009 39.4716 116.364 39.5767 116.722 39.6619L118.358 40.071C119.017 40.2244 119.651 40.4318 120.259 40.6932C120.872 40.9545 121.42 41.2841 121.903 41.6818C122.392 42.0795 122.778 42.5597 123.062 43.1222C123.347 43.6847 123.489 44.3437 123.489 45.0994C123.489 46.1222 123.227 47.0227 122.705 47.8011C122.182 48.5739 121.426 49.179 120.438 49.6165C119.455 50.0483 118.264 50.2642 116.866 50.2642C115.509 50.2642 114.33 50.054 113.33 49.6335C112.335 49.2131 111.557 48.5994 110.994 47.7926C110.438 46.9858 110.136 46.0028 110.091 44.8438H113.202C113.247 45.4517 113.435 45.9574 113.764 46.3608C114.094 46.7642 114.523 47.0653 115.051 47.2642C115.585 47.4631 116.182 47.5625 116.841 47.5625C117.528 47.5625 118.131 47.4602 118.648 47.2557C119.17 47.0455 119.58 46.7557 119.875 46.3864C120.17 46.0114 120.321 45.5739 120.327 45.0739C120.321 44.6193 120.188 44.2443 119.926 43.9489C119.665 43.6477 119.298 43.3977 118.827 43.1989C118.361 42.9943 117.815 42.8125 117.19 42.6534L115.205 42.142C113.767 41.7727 112.631 41.2131 111.795 40.4631C110.966 39.7074 110.551 38.7045 110.551 37.4545C110.551 36.4261 110.83 35.5256 111.386 34.7528C111.949 33.9801 112.713 33.3807 113.679 32.9545C114.645 32.5227 115.739 32.3068 116.96 32.3068C118.199 32.3068 119.284 32.5227 120.216 32.9545C121.153 33.3807 121.889 33.9744 122.423 34.7358C122.957 35.4915 123.233 36.3608 123.25 37.3438H120.207ZM132.708 36.9091V39.2955H125.183V36.9091H132.708ZM127.04 33.7727H130.126V46.0625C130.126 46.4773 130.188 46.7955 130.313 47.017C130.444 47.233 130.614 47.3807 130.825 47.4602C131.035 47.5398 131.268 47.5795 131.523 47.5795C131.717 47.5795 131.893 47.5653 132.052 47.5369C132.217 47.5085 132.342 47.483 132.427 47.4602L132.947 49.8722C132.782 49.929 132.546 49.9915 132.239 50.0597C131.938 50.1278 131.569 50.1676 131.131 50.179C130.359 50.2017 129.663 50.0852 129.043 49.8295C128.424 49.5682 127.933 49.1648 127.569 48.6193C127.211 48.0739 127.035 47.392 127.04 46.5739V33.7727ZM140.858 50.2557C139.58 50.2557 138.472 49.9744 137.534 49.4119C136.597 48.8494 135.869 48.0625 135.352 47.0511C134.841 46.0398 134.585 44.858 134.585 43.5057C134.585 42.1534 134.841 40.9687 135.352 39.9517C135.869 38.9347 136.597 38.1449 137.534 37.5824C138.472 37.0199 139.58 36.7386 140.858 36.7386C142.136 36.7386 143.244 37.0199 144.182 37.5824C145.119 38.1449 145.844 38.9347 146.355 39.9517C146.872 40.9687 147.131 42.1534 147.131 43.5057C147.131 44.858 146.872 46.0398 146.355 47.0511C145.844 48.0625 145.119 48.8494 144.182 49.4119C143.244 49.9744 142.136 50.2557 140.858 50.2557ZM140.875 47.7841C141.568 47.7841 142.148 47.5937 142.614 47.2131C143.08 46.8267 143.426 46.3097 143.653 45.6619C143.886 45.0142 144.003 44.2926 144.003 43.4972C144.003 42.696 143.886 41.9716 143.653 41.3239C143.426 40.6705 143.08 40.1506 142.614 39.7642C142.148 39.3778 141.568 39.1847 140.875 39.1847C140.165 39.1847 139.574 39.3778 139.102 39.7642C138.636 40.1506 138.287 40.6705 138.054 41.3239C137.827 41.9716 137.713 42.696 137.713 43.4972C137.713 44.2926 137.827 45.0142 138.054 45.6619C138.287 46.3097 138.636 46.8267 139.102 47.2131C139.574 47.5937 140.165 47.7841 140.875 47.7841ZM149.749 50V36.9091H152.741V39.0909H152.877C153.116 38.3352 153.525 37.7528 154.104 37.3438C154.69 36.929 155.357 36.7216 156.107 36.7216C156.278 36.7216 156.468 36.7301 156.678 36.7472C156.894 36.7585 157.073 36.7784 157.215 36.8068V39.6449C157.085 39.5994 156.877 39.5597 156.593 39.5256C156.315 39.4858 156.045 39.4659 155.783 39.4659C155.221 39.4659 154.715 39.5881 154.266 39.8324C153.823 40.071 153.474 40.4034 153.218 40.8295C152.962 41.2557 152.835 41.7472 152.835 42.304V50H149.749ZM159.401 50V32.5455H170.754V35.196H162.563V39.9347H170.165V42.5852H162.563V47.3494H170.822V50H159.401ZM177.61 50.2642C176.781 50.2642 176.033 50.1165 175.369 49.821C174.71 49.5199 174.187 49.0767 173.8 48.4915C173.42 47.9062 173.229 47.1847 173.229 46.3267C173.229 45.5881 173.366 44.9773 173.638 44.4943C173.911 44.0114 174.283 43.625 174.755 43.3352C175.227 43.0455 175.758 42.8267 176.349 42.679C176.945 42.5256 177.562 42.4148 178.198 42.3466C178.965 42.267 179.587 42.196 180.065 42.1335C180.542 42.0653 180.888 41.9631 181.104 41.8267C181.326 41.6847 181.437 41.4659 181.437 41.1705V41.1193C181.437 40.4773 181.246 39.9801 180.866 39.6278C180.485 39.2756 179.937 39.0994 179.221 39.0994C178.465 39.0994 177.866 39.2642 177.423 39.5938C176.985 39.9233 176.69 40.3125 176.536 40.7614L173.656 40.3523C173.883 39.5568 174.258 38.892 174.781 38.358C175.303 37.8182 175.942 37.4148 176.698 37.1477C177.454 36.875 178.289 36.7386 179.204 36.7386C179.835 36.7386 180.462 36.8125 181.087 36.9602C181.712 37.108 182.283 37.3523 182.8 37.6932C183.317 38.0284 183.732 38.4858 184.045 39.0653C184.363 39.6449 184.522 40.3693 184.522 41.2386V50H181.556V48.2017H181.454C181.266 48.5653 181.002 48.9062 180.661 49.2244C180.326 49.5369 179.903 49.7898 179.391 49.983C178.886 50.1705 178.292 50.2642 177.61 50.2642ZM178.411 47.9972C179.031 47.9972 179.567 47.875 180.022 47.6307C180.477 47.3807 180.826 47.0511 181.07 46.642C181.32 46.233 181.445 45.7869 181.445 45.304V43.7614C181.349 43.8409 181.184 43.9148 180.951 43.983C180.724 44.0511 180.468 44.1108 180.184 44.1619C179.9 44.2131 179.619 44.2585 179.34 44.2983C179.062 44.3381 178.82 44.3722 178.616 44.4006C178.156 44.4631 177.744 44.5653 177.38 44.7074C177.016 44.8494 176.729 45.0483 176.519 45.304C176.309 45.554 176.204 45.8778 176.204 46.2756C176.204 46.8438 176.411 47.2727 176.826 47.5625C177.241 47.8523 177.769 47.9972 178.411 47.9972ZM197.971 40.3693L195.158 40.6761C195.079 40.392 194.94 40.125 194.741 39.875C194.548 39.625 194.286 39.4233 193.957 39.2699C193.627 39.1165 193.224 39.0398 192.746 39.0398C192.104 39.0398 191.565 39.179 191.127 39.4574C190.695 39.7358 190.482 40.0966 190.488 40.5398C190.482 40.9205 190.621 41.2301 190.906 41.4688C191.195 41.7074 191.673 41.9034 192.337 42.0568L194.57 42.5341C195.809 42.8011 196.729 43.2244 197.332 43.804C197.94 44.3835 198.246 45.142 198.252 46.0795C198.246 46.9034 198.005 47.6307 197.528 48.2614C197.056 48.8864 196.4 49.375 195.559 49.7273C194.718 50.0795 193.752 50.2557 192.661 50.2557C191.059 50.2557 189.769 49.9205 188.792 49.25C187.815 48.5739 187.232 47.6335 187.045 46.429L190.053 46.1392C190.19 46.7301 190.479 47.1761 190.923 47.4773C191.366 47.7784 191.942 47.929 192.653 47.929C193.386 47.929 193.974 47.7784 194.417 47.4773C194.866 47.1761 195.09 46.804 195.09 46.3608C195.09 45.9858 194.945 45.6761 194.656 45.4318C194.371 45.1875 193.928 45 193.326 44.8693L191.093 44.4006C189.837 44.1392 188.908 43.6989 188.306 43.0795C187.704 42.4545 187.406 41.6648 187.411 40.7102C187.406 39.9034 187.624 39.2045 188.067 38.6136C188.516 38.017 189.138 37.5568 189.934 37.233C190.735 36.9034 191.658 36.7386 192.704 36.7386C194.238 36.7386 195.445 37.0653 196.326 37.7188C197.212 38.3722 197.761 39.2557 197.971 40.3693ZM206.592 50.2557C205.279 50.2557 204.146 49.983 203.191 49.4375C202.242 48.8864 201.512 48.108 201.001 47.1023C200.489 46.0909 200.234 44.9006 200.234 43.5312C200.234 42.1847 200.489 41.0028 201.001 39.9858C201.518 38.9631 202.239 38.1676 203.165 37.5994C204.092 37.0256 205.18 36.7386 206.43 36.7386C207.237 36.7386 207.998 36.8693 208.714 37.1307C209.435 37.3864 210.072 37.7841 210.623 38.3239C211.18 38.8636 211.617 39.5511 211.935 40.3864C212.254 41.2159 212.413 42.2045 212.413 43.3523V44.2983H201.683V42.2188H209.455C209.45 41.6278 209.322 41.1023 209.072 40.642C208.822 40.1761 208.472 39.8097 208.023 39.5426C207.58 39.2756 207.063 39.142 206.472 39.142C205.842 39.142 205.288 39.2955 204.81 39.6023C204.333 39.9034 203.961 40.3011 203.694 40.7955C203.433 41.2841 203.299 41.821 203.293 42.4062V44.2216C203.293 44.983 203.433 45.6364 203.711 46.1818C203.989 46.7216 204.379 47.1364 204.879 47.4261C205.379 47.7102 205.964 47.8523 206.634 47.8523C207.083 47.8523 207.489 47.7898 207.853 47.6648C208.217 47.5341 208.532 47.3438 208.799 47.0938C209.066 46.8438 209.268 46.5341 209.404 46.1648L212.285 46.4886C212.103 47.25 211.756 47.9148 211.245 48.483C210.739 49.0455 210.092 49.483 209.302 49.7955C208.512 50.1023 207.609 50.2557 206.592 50.2557Z" fill="#FA7275"/>
</svg>
