<svg width="224" height="82" viewBox="0 0 224 82" fill="none" xmlns="http://www.w3.org/2000/svg">
<path opacity="0.2" d="M37.4162 0H37.4161C16.7518 0 0 16.7518 0 37.4161V37.4162C0 58.0805 16.7518 74.8323 37.4161 74.8323H37.4162C58.0805 74.8323 74.8323 58.0805 74.8323 37.4162V37.4161C74.8323 16.7518 58.0805 0 37.4162 0Z" fill="white"/>
<path d="M82.6265 56.1238C82.6265 42.3476 71.4586 31.1797 57.6824 31.1797C43.9061 31.1797 32.7383 42.3476 32.7383 56.1238C32.7383 69.9 43.9061 81.0679 57.6824 81.0679C71.4586 81.0679 82.6265 69.9 82.6265 56.1238Z" fill="white"/>
<path d="M114.717 37.4738C114.638 36.7294 114.303 36.1499 113.712 35.7351C113.126 35.3203 112.365 35.113 111.428 35.113C110.769 35.113 110.203 35.2124 109.732 35.4113C109.26 35.6101 108.899 35.88 108.649 36.2209C108.399 36.5618 108.271 36.951 108.266 37.3885C108.266 37.7522 108.348 38.0675 108.513 38.3346C108.683 38.6016 108.913 38.8289 109.203 39.0164C109.493 39.1982 109.814 39.3516 110.166 39.4766C110.519 39.6016 110.874 39.7067 111.232 39.7919L112.868 40.201C113.527 40.3544 114.161 40.5618 114.769 40.8232C115.382 41.0846 115.93 41.4141 116.413 41.8118C116.902 42.2096 117.288 42.6897 117.573 43.2522C117.857 43.8147 117.999 44.4738 117.999 45.2294C117.999 46.2522 117.737 47.1527 117.215 47.9311C116.692 48.7039 115.936 49.309 114.948 49.7465C113.965 50.1783 112.774 50.3942 111.376 50.3942C110.019 50.3942 108.84 50.184 107.84 49.7635C106.845 49.3431 106.067 48.7294 105.504 47.9226C104.948 47.1158 104.646 46.1328 104.601 44.9738H107.712C107.757 45.5817 107.945 46.0874 108.274 46.4908C108.604 46.8942 109.033 47.1953 109.561 47.3942C110.095 47.5931 110.692 47.6925 111.351 47.6925C112.038 47.6925 112.641 47.5902 113.158 47.3857C113.68 47.1755 114.09 46.8857 114.385 46.5164C114.68 46.1414 114.831 45.7039 114.837 45.2039C114.831 44.7493 114.698 44.3743 114.436 44.0789C114.175 43.7777 113.808 43.5277 113.337 43.3289C112.871 43.1243 112.325 42.9425 111.7 42.7834L109.715 42.2721C108.277 41.9027 107.141 41.3431 106.305 40.5931C105.476 39.8374 105.061 38.8345 105.061 37.5845C105.061 36.5561 105.34 35.6556 105.896 34.8828C106.459 34.1101 107.223 33.5107 108.189 33.0845C109.155 32.6527 110.249 32.4368 111.47 32.4368C112.709 32.4368 113.794 32.6527 114.726 33.0845C115.663 33.5107 116.399 34.1044 116.933 34.8658C117.467 35.6215 117.743 36.4908 117.76 37.4738H114.717ZM127.218 37.0391V39.4255H119.693V37.0391H127.218ZM121.55 33.9027H124.636V46.1925C124.636 46.6073 124.698 46.9255 124.823 47.1471C124.954 47.363 125.124 47.5107 125.335 47.5902C125.545 47.6698 125.778 47.7096 126.033 47.7096C126.227 47.7096 126.403 47.6953 126.562 47.6669C126.727 47.6385 126.852 47.613 126.937 47.5902L127.457 50.0022C127.292 50.059 127.056 50.1215 126.749 50.1897C126.448 50.2578 126.079 50.2976 125.641 50.309C124.869 50.3317 124.173 50.2152 123.553 49.9596C122.934 49.6982 122.443 49.2948 122.079 48.7493C121.721 48.2039 121.545 47.5221 121.55 46.7039V33.9027ZM135.368 50.3857C134.09 50.3857 132.982 50.1044 132.044 49.5419C131.107 48.9794 130.379 48.1925 129.862 47.1811C129.351 46.1698 129.095 44.988 129.095 43.6357C129.095 42.2834 129.351 41.0988 129.862 40.0817C130.379 39.0647 131.107 38.2749 132.044 37.7124C132.982 37.1499 134.09 36.8686 135.368 36.8686C136.646 36.8686 137.754 37.1499 138.692 37.7124C139.629 38.2749 140.354 39.0647 140.865 40.0817C141.382 41.0988 141.641 42.2834 141.641 43.6357C141.641 44.988 141.382 46.1698 140.865 47.1811C140.354 48.1925 139.629 48.9794 138.692 49.5419C137.754 50.1044 136.646 50.3857 135.368 50.3857ZM135.385 47.9141C136.078 47.9141 136.658 47.7238 137.124 47.3431C137.59 46.9567 137.936 46.4397 138.163 45.7919C138.396 45.1442 138.513 44.4226 138.513 43.6272C138.513 42.826 138.396 42.1016 138.163 41.4539C137.936 40.8005 137.59 40.2806 137.124 39.8942C136.658 39.5078 136.078 39.3147 135.385 39.3147C134.675 39.3147 134.084 39.5078 133.612 39.8942C133.146 40.2806 132.797 40.8005 132.564 41.4539C132.337 42.1016 132.223 42.826 132.223 43.6272C132.223 44.4226 132.337 45.1442 132.564 45.7919C132.797 46.4397 133.146 46.9567 133.612 47.3431C134.084 47.7238 134.675 47.9141 135.385 47.9141ZM144.259 50.13V37.0391H147.251V39.2209H147.387C147.626 38.4652 148.035 37.8828 148.614 37.4738C149.2 37.059 149.867 36.8516 150.617 36.8516C150.788 36.8516 150.978 36.8601 151.188 36.8772C151.404 36.8885 151.583 36.9084 151.725 36.9368V39.7749C151.595 39.7294 151.387 39.6897 151.103 39.6556C150.825 39.6158 150.555 39.5959 150.293 39.5959C149.731 39.5959 149.225 39.7181 148.776 39.9624C148.333 40.201 147.984 40.5334 147.728 40.9596C147.472 41.3857 147.345 41.8772 147.345 42.434V50.13H144.259ZM153.911 50.13V32.6755H165.264V35.326H157.073V40.0647H164.675V42.7152H157.073V47.4794H165.332V50.13H153.911ZM172.12 50.3942C171.291 50.3942 170.543 50.2465 169.879 49.951C169.22 49.6499 168.697 49.2067 168.31 48.6215C167.93 48.0363 167.739 47.3147 167.739 46.4567C167.739 45.7181 167.876 45.1073 168.149 44.6243C168.421 44.1414 168.793 43.755 169.265 43.4652C169.737 43.1755 170.268 42.9567 170.859 42.809C171.455 42.6556 172.072 42.5448 172.708 42.4766C173.475 42.397 174.097 42.326 174.575 42.2635C175.052 42.1953 175.399 42.0931 175.614 41.9567C175.836 41.8147 175.947 41.5959 175.947 41.3005V41.2493C175.947 40.6073 175.756 40.1101 175.376 39.7578C174.995 39.4056 174.447 39.2294 173.731 39.2294C172.975 39.2294 172.376 39.3942 171.933 39.7238C171.495 40.0533 171.2 40.4425 171.046 40.8914L168.166 40.4823C168.393 39.6868 168.768 39.022 169.291 38.488C169.813 37.9482 170.452 37.5448 171.208 37.2777C171.964 37.005 172.799 36.8686 173.714 36.8686C174.345 36.8686 174.972 36.9425 175.597 37.0902C176.222 37.238 176.793 37.4823 177.31 37.8232C177.827 38.1584 178.242 38.6158 178.555 39.1953C178.873 39.7749 179.032 40.4993 179.032 41.3686V50.13H176.066V48.3317H175.964C175.776 48.6953 175.512 49.0363 175.171 49.3544C174.836 49.6669 174.413 49.9198 173.901 50.113C173.396 50.3005 172.802 50.3942 172.12 50.3942ZM172.921 48.1272C173.541 48.1272 174.077 48.005 174.532 47.7607C174.987 47.5107 175.336 47.1811 175.58 46.7721C175.83 46.363 175.955 45.9169 175.955 45.434V43.8914C175.859 43.9709 175.694 44.0448 175.461 44.113C175.234 44.1811 174.978 44.2408 174.694 44.2919C174.41 44.3431 174.129 44.3885 173.85 44.4283C173.572 44.4681 173.33 44.5022 173.126 44.5306C172.666 44.5931 172.254 44.6953 171.89 44.8374C171.526 44.9794 171.239 45.1783 171.029 45.434C170.819 45.684 170.714 46.0078 170.714 46.4056C170.714 46.9738 170.921 47.4027 171.336 47.6925C171.751 47.9823 172.279 48.1272 172.921 48.1272ZM192.481 40.4993L189.668 40.8061C189.589 40.5221 189.45 40.255 189.251 40.005C189.058 39.755 188.796 39.5533 188.467 39.3999C188.137 39.2465 187.734 39.1698 187.256 39.1698C186.614 39.1698 186.075 39.309 185.637 39.5874C185.205 39.8658 184.992 40.2266 184.998 40.6698C184.992 41.0505 185.131 41.3601 185.416 41.5988C185.705 41.8374 186.183 42.0334 186.847 42.1868L189.08 42.6641C190.319 42.9311 191.239 43.3544 191.842 43.934C192.45 44.5135 192.756 45.2721 192.762 46.2096C192.756 47.0334 192.515 47.7607 192.038 48.3914C191.566 49.0164 190.91 49.505 190.069 49.8573C189.228 50.2096 188.262 50.3857 187.171 50.3857C185.569 50.3857 184.279 50.0505 183.302 49.38C182.325 48.7039 181.742 47.7635 181.555 46.559L184.563 46.2692C184.7 46.8601 184.989 47.3061 185.433 47.6073C185.876 47.9084 186.452 48.059 187.163 48.059C187.896 48.059 188.484 47.9084 188.927 47.6073C189.376 47.3061 189.6 46.934 189.6 46.4908C189.6 46.1158 189.455 45.8061 189.166 45.5618C188.881 45.3175 188.438 45.13 187.836 44.9993L185.603 44.5306C184.347 44.2692 183.418 43.8289 182.816 43.2096C182.214 42.5846 181.916 41.7948 181.921 40.8402C181.916 40.0334 182.134 39.3346 182.577 38.7436C183.026 38.1471 183.649 37.6868 184.444 37.363C185.245 37.0334 186.168 36.8686 187.214 36.8686C188.748 36.8686 189.955 37.1953 190.836 37.8488C191.722 38.5022 192.271 39.3857 192.481 40.4993ZM201.102 50.3857C199.789 50.3857 198.656 50.113 197.701 49.5675C196.752 49.0164 196.022 48.238 195.511 47.2323C194.999 46.2209 194.744 45.0306 194.744 43.6613C194.744 42.3147 194.999 41.1328 195.511 40.1158C196.028 39.0931 196.749 38.2976 197.675 37.7294C198.602 37.1556 199.69 36.8686 200.94 36.8686C201.747 36.8686 202.508 36.9993 203.224 37.2607C203.945 37.5164 204.582 37.9141 205.133 38.4539C205.69 38.9936 206.127 39.6811 206.445 40.5164C206.764 41.3459 206.923 42.3346 206.923 43.4823V44.4283H196.193V42.3488H203.965C203.96 41.7578 203.832 41.2323 203.582 40.7721C203.332 40.3061 202.982 39.9397 202.533 39.6726C202.09 39.4056 201.573 39.2721 200.982 39.2721C200.352 39.2721 199.798 39.4255 199.32 39.7323C198.843 40.0334 198.471 40.4311 198.204 40.9255C197.943 41.4141 197.809 41.951 197.803 42.5363V44.3516C197.803 45.113 197.943 45.7664 198.221 46.3118C198.499 46.8516 198.889 47.2664 199.389 47.5561C199.889 47.8402 200.474 47.9823 201.144 47.9823C201.593 47.9823 201.999 47.9198 202.363 47.7948C202.727 47.6641 203.042 47.4738 203.309 47.2238C203.576 46.9738 203.778 46.6641 203.914 46.2948L206.795 46.6186C206.613 47.38 206.266 48.0448 205.755 48.613C205.249 49.1755 204.602 49.613 203.812 49.9255C203.022 50.2323 202.119 50.3857 201.102 50.3857Z" fill="white"/>
</svg>
